<svg width="512" height="512" viewBox="0 0 512 512" fill="none" xmlns="http://www.w3.org/2000/svg">
  <rect width="512" height="512" rx="112" fill="#F8FAFF"/>
  <rect x="28" y="28" width="456" height="456" rx="96" fill="white"/>
  <path d="M214 96C144.4 96 88 152.4 88 222C88 291.6 144.4 348 214 348H280C291 348 300 339 300 328C300 317 291 308 280 308H214C166.5 308 128 269.5 128 222C128 174.5 166.5 136 214 136H282C293 136 302 127 302 116C302 105 293 96 282 96H214Z" fill="#3B78E7"/>
  <path d="M260 198C260 187 269 178 280 178H364C389.4 178 410 198.6 410 224C410 249.4 389.4 270 364 270H274C263 270 254 261 254 250C254 239 263 230 274 230H364C367.3 230 370 227.3 370 224C370 220.7 367.3 218 364 218H280C269 218 260 209 260 198Z" fill="#E84A2A"/>
  <path d="M336 272C347 272 356 281 356 292V338C356 382.2 320.2 418 276 418H258C247 418 238 409 238 398C238 387 247 378 258 378H276C298.1 378 316 360.1 316 338V292C316 281 325 272 336 272Z" fill="#FDC21B"/>
  <path d="M230 242L270 202L310 242L270 282L230 242Z" fill="#18A06B"/>
</svg>
